<svg width="130" height="32" viewBox="0 0 130 32" fill="none" xmlns="http://www.w3.org/2000/svg">
<path d="M5.47507 0H17.1413V9.34367H0L5.47507 0Z" fill="#191919"/>
<path d="M5.4686 20.6718L0 11.3281H24.1314L29.6 20.6718H5.4686Z" fill="#191919"/>
<path d="M24.125 31.9999H12.459V22.6562H29.6002L24.125 31.9999Z" fill="#191919"/>
<path fill-rule="evenodd" clip-rule="evenodd" d="M54.5406 20.7452C54.0667 20.9384 53.4928 21.1128 53.4302 21.1316C53.0704 21.2388 52.6702 21.3043 52.1886 21.3043C50.9944 21.3043 50.4417 20.7061 50.4417 19.4565V13.087H54.6214V11.4241H50.4417V9H48.6504V19.6087C48.6504 21.7602 49.9991 22.9999 52.1004 22.9999C52.9738 22.9999 53.7698 22.8365 54.5659 22.5103C54.7405 22.4398 54.9755 22.3243 55.1556 22.2065L54.5406 20.7452ZM96.3961 20.7452C95.9222 20.9384 95.3483 21.1128 95.2857 21.1316C94.9259 21.2388 94.526 21.3043 94.0441 21.3043C92.8502 21.3043 92.2972 20.7061 92.2972 19.4565V13.087H96.4769V11.4241H92.2972V9H90.5059V19.6087C90.5059 21.7602 91.8546 22.9999 93.9559 22.9999C94.8293 22.9999 95.6253 22.8365 96.4213 22.5103C96.596 22.4398 96.8313 22.3243 97.0114 22.2065L96.3961 20.7452ZM118.215 11.7416C117.956 11.6215 117.645 11.5182 117.472 11.4673C117.008 11.3264 116.333 11.2281 115.515 11.2281C113.248 11.2281 111.91 12.5432 111.91 14.7609V22.8039H113.701V14.8039C113.701 13.5649 114.332 12.9568 115.603 12.9568C116.066 12.9568 116.479 13.0057 116.848 13.0908C116.897 13.102 117.285 13.194 117.74 13.3336L118.215 11.7416ZM121.618 15.848C121.762 14.0763 122.989 12.8697 124.836 12.8697C126.782 12.8697 128.076 14.1309 127.887 16.424H121.585L121.618 15.848ZM128.484 20.4658C128.322 20.5383 128.133 20.6144 127.962 20.683C127.851 20.7275 127.748 20.7688 127.665 20.8039C126.858 21.1411 126.018 21.3475 124.978 21.3475C123.032 21.3475 121.761 20.2061 121.617 18.4999C121.595 18.2829 121.584 18.0655 121.584 17.8372H129.552C129.593 17.1957 129.6 16.5558 129.6 15.9133C129.6 13.1851 127.831 11.2612 124.868 11.2612C122.07 11.2612 120.135 13.0978 119.881 15.728C119.804 16.5327 119.815 17.8041 119.892 18.6197C120.157 21.2172 122.093 23.0001 124.978 23.0001C126.283 23.0001 127.422 22.6845 128.539 22.2061C128.678 22.1482 128.887 22.0367 129.093 21.9126L128.484 20.4658ZM106.736 11.4243H108.527V21.5576C108.282 21.7452 108.085 21.8587 108.085 21.8587C107.31 22.3258 105.708 23.0001 103.739 23.0001C100.732 23.0001 98.9951 21.3154 98.9951 18.4565V11.4243H100.787V18.3153C100.787 20.2716 101.771 21.2823 103.75 21.2823C104.911 21.2823 106.061 20.9564 106.736 20.5214V11.4243ZM78.3144 18.6629C78.2703 18.2338 78.248 17.6746 78.248 17.1139C78.248 16.5531 78.2703 15.9939 78.3144 15.5648C78.5577 12.9997 80.4264 11.228 83.2352 11.228C85.5462 11.228 87.0497 12.391 87.6909 13.9565C87.7774 14.1617 87.8922 14.5686 87.9622 14.8535L86.3372 15.3693C86.2725 15.182 86.2086 15.0067 86.1652 14.9021C85.6899 13.6409 84.7391 12.9567 83.2571 12.9567C81.3884 12.9567 80.2605 14.0757 80.0949 15.7498C80.0562 16.1683 80.037 16.6401 80.0367 17.1139C80.037 17.5876 80.0562 18.0594 80.0949 18.4779C80.2605 20.152 81.3884 21.271 83.2571 21.271C84.7391 21.271 85.6899 20.5868 86.1652 19.3256C86.2086 19.221 86.2725 19.0457 86.3372 18.8584L87.9622 19.3742C87.8922 19.6591 87.7774 20.066 87.6909 20.2712C87.0497 21.8367 85.5462 22.9997 83.2352 22.9997C80.4264 22.9997 78.5577 21.228 78.3144 18.6629ZM75.2879 11.4243H73.4966V20.5214C72.8218 20.9564 71.672 21.2823 70.5111 21.2823C68.5317 21.2823 67.5472 20.2716 67.5472 18.3153V11.4243H65.7559V18.4565C65.7559 21.3154 67.4923 23.0001 70.5 23.0001C72.4683 23.0001 74.0711 22.3258 74.8453 21.8587C74.8453 21.8587 75.0432 21.7452 75.2879 21.5576V11.4243ZM62.8586 11.4673C63.0316 11.5182 63.3423 11.6215 63.6014 11.7416L63.1268 13.3336C62.6721 13.194 62.2834 13.102 62.2346 13.0908C61.8653 13.0057 61.453 12.9568 60.9899 12.9568C59.7183 12.9568 59.0882 13.5649 59.0882 14.8039V22.8039H57.2969V14.7609C57.2969 12.5432 58.6348 11.2281 60.9017 11.2281C61.7196 11.2281 62.3944 11.3264 62.8586 11.4673ZM41.5747 16.0327L43.2111 16.4023C45.3451 16.8913 46.3181 17.9566 46.3181 19.5325C46.3181 21.6628 44.6706 22.9998 42.1825 22.9998C40.5131 22.9998 39.164 22.576 38.1247 21.7607C38.0001 21.6661 37.7827 21.4858 37.5996 21.3121L38.5905 20.0271C38.7689 20.1607 38.9486 20.2924 39.129 20.4201C39.3949 20.6084 39.6666 20.7821 39.9641 20.9187C40.2717 21.06 40.5969 21.1626 40.9294 21.2304C41.3448 21.3154 41.7699 21.3478 42.194 21.3478C43.786 21.3478 44.549 20.6196 44.549 19.598C44.549 18.8043 44.0623 18.3043 42.8018 18.0218L41.0769 17.6086C39.2192 17.1847 38.0914 16.1955 38.0914 14.5763C38.0914 12.5221 39.7611 11.2284 42.1384 11.2284C43.6753 11.2284 44.8032 11.7396 45.5329 12.272C45.6682 12.3686 45.8802 12.5495 46.0425 12.712L45.0105 14.0499C44.9072 13.9676 44.8018 13.8878 44.6951 13.8097C44.3417 13.5507 43.9775 13.3102 43.5655 13.1504C43.1266 12.9803 42.6548 12.8916 42.1825 12.8916C40.679 12.8916 39.8386 13.4786 39.8386 14.5327C39.8386 15.2175 40.2475 15.7283 41.5747 16.0327Z" fill="#191919"/>
</svg>
