<svg width="780" height="258" viewBox="0 0 780 258" fill="none" xmlns="http://www.w3.org/2000/svg">
<mask id="mask0_701_889" style="mask-type:alpha" maskUnits="userSpaceOnUse" x="0" y="0" width="780" height="258">
<rect width="780" height="258" fill="#EDEFF2"/>
</mask>
<g mask="url(#mask0_701_889)">
<rect x="1" width="778" height="258" fill="white"/>
<path d="M-3 228L-1.32607 222.41C-1.04927 221.486 0.246675 221.451 0.572974 222.359L1.00505 223.561C1.37039 224.578 2.86483 224.373 2.94347 223.296L12.0798 98.1234C12.1673 96.9243 13.908 96.8713 14.0682 98.0629L15.2175 106.609C15.3755 107.784 17.0834 107.757 17.2035 106.578L20.3272 75.8987C20.3792 75.3883 20.809 75 21.3221 75H22.9981C23.2988 75 23.5836 74.8647 23.7735 74.6316L26.3585 71.458C26.8645 70.8369 27.8589 71.0331 28.091 71.7998L32.7592 87.2212C32.9526 87.8601 33.7056 88.1338 34.2641 87.7681L36.7058 86.1694C37.2344 85.8233 37.9474 86.048 38.1821 86.6346L42.8707 98.3559C43.1066 98.9456 43.8252 99.1688 44.3537 98.8166L57.455 90.0855C57.54 90.0288 57.6158 89.9595 57.6798 89.8799L64.3457 81.5873C64.7747 81.0536 65.6011 81.0993 65.9688 81.677L69.8127 87.7173C70.0936 88.1587 70.6673 88.309 71.1286 88.0619L75.2298 85.8649C75.631 85.65 76.1267 85.7331 76.4358 86.0671L80.3473 90.2927C80.7127 90.6875 81.3249 90.7225 81.7329 90.3719L88.4084 84.6352C88.8197 84.2818 89.4377 84.3205 89.8016 84.7226L92.3515 87.5399C92.791 88.0255 93.5709 87.9646 93.9296 87.4166L97.262 82.3255C97.5616 81.8678 98.1733 81.7358 98.635 82.0292L105.598 86.4541C106.07 86.754 106.696 86.6086 106.988 86.1314L112.566 77L116.38 68.2608C116.703 67.5192 117.728 67.4489 118.15 68.1394L118.987 69.51C119.445 70.2601 120.579 70.0965 120.806 69.2475L121.758 65.6975C122.024 64.7028 123.439 64.7117 123.693 65.7096L124.315 68.1539C124.514 68.935 125.507 69.172 126.037 68.5648L127.071 67.3807C127.475 66.9181 128.196 66.9252 128.59 67.3957L133.825 73.6381C134.326 74.2356 135.287 74.0553 135.538 73.317L137.584 67.29C137.891 66.3852 139.17 66.3852 139.477 67.29L140.667 70.7955C141.01 71.8053 142.484 71.6489 142.607 70.5897L144.002 58.6057C144.071 58.0152 144.636 57.6146 145.216 57.7461L150.472 58.9372C150.653 58.9783 150.819 59.0689 150.952 59.199L155.536 63.7016C155.967 64.1247 156.672 64.0724 157.035 63.5903L165.125 52.865C165.654 52.1627 166.767 52.4371 166.91 53.3051L169.021 66.1586C169.057 66.3798 169.167 66.5823 169.332 66.7337L175.583 72.4642C176.116 72.9522 176.974 72.7323 177.206 72.0484L184.119 51.6786C184.257 51.2729 184.638 51 185.066 51H187.74C188.152 51 188.521 50.7479 188.671 50.3647L189.958 47.0795C190.299 46.2078 191.544 46.2412 191.838 47.13L196.649 61.6674C196.95 62.5781 198.237 62.5831 198.545 61.6746L199.704 58.2603C200.048 57.2476 201.527 57.4087 201.645 58.4717L203.144 72.0114C203.264 73.0986 204.792 73.231 205.098 72.1807L205.937 69.2973C206.202 68.3831 207.475 68.3226 207.826 69.2073L213.758 84.1357C214.116 85.0364 215.417 84.9524 215.656 84.0131L217.088 78.3872C217.336 77.4129 218.706 77.3727 219.01 78.3307L222.548 89.4501C222.774 90.1604 223.67 90.3826 224.202 89.8603L227.369 86.75C227.926 86.2027 228.868 86.477 229.044 87.238L230.448 93.3061C230.671 94.268 232.004 94.3597 232.357 93.4374L233.82 89.6057C234.04 89.0274 234.728 88.7866 235.262 89.1009L241.187 92.5927C241.591 92.8307 242.106 92.7561 242.426 92.4134L246.521 88.0263C246.99 87.5239 247.814 87.6333 248.135 88.2407L253.169 97.7467C253.553 98.4723 254.599 98.4513 254.954 97.7109L257.799 91.7731C258.012 91.3283 258.518 91.1053 258.99 91.248L264.255 92.839C264.587 92.9391 264.842 93.2033 264.932 93.5375L266.421 99.0946C266.682 100.068 268.056 100.088 268.345 99.1227L268.771 97.7012C269.067 96.7124 270.485 96.7659 270.705 97.7742L280.005 140.244C280.042 140.412 280.121 140.567 280.235 140.696L282.164 142.86C282.734 143.5 283.794 143.172 283.902 142.321L285.598 128.999C285.638 128.685 285.824 128.409 286.1 128.254L288.802 126.738C289.069 126.588 289.253 126.323 289.3 126.02L290.54 118.102C290.707 117.037 292.208 116.953 292.493 117.992L293.529 121.773C293.817 122.823 295.338 122.722 295.484 121.643L296.664 112.957C296.759 112.258 297.529 111.874 298.144 112.22L300.017 113.271C300.276 113.416 300.456 113.669 300.511 113.961L302.37 124.006C302.428 124.317 302.629 124.582 302.913 124.721L313.216 129.781C313.497 129.919 313.697 130.181 313.757 130.488L315.646 140.23C315.68 140.407 315.761 140.571 315.881 140.705L319.208 144.44C319.244 144.48 319.276 144.523 319.305 144.568L322.958 150.308C323.45 151.08 324.635 150.841 324.788 149.939L326.331 140.845C326.369 140.622 326.482 140.418 326.651 140.267L331.587 135.86C331.838 135.635 332.186 135.553 332.511 135.64L337.034 136.851C337.378 136.943 337.647 137.211 337.74 137.555L339.179 142.852C339.379 143.59 340.299 143.839 340.844 143.303L342.261 141.912C342.851 141.333 343.849 141.679 343.953 142.5L344.723 148.544C344.854 149.576 346.278 149.746 346.649 148.774L347.218 147.282C347.56 146.387 348.845 146.439 349.113 147.36L351.239 154.667C351.301 154.883 351.435 155.071 351.618 155.202L355.891 158.254C356.421 158.633 357.166 158.411 357.404 157.805L359.232 153.135C359.382 152.752 359.752 152.5 360.163 152.5H365.917C366.038 152.5 366.157 152.522 366.27 152.565L371.518 154.547C372.127 154.777 372.79 154.373 372.865 153.726L375.147 134.008C375.211 133.454 375.716 133.059 376.27 133.132L382.187 133.907C382.613 133.962 383.027 133.74 383.215 133.354L388.538 122.463C388.793 121.942 389.435 121.746 389.937 122.036L396.751 125.973C397.247 126.259 397.882 126.071 398.142 125.56L399.207 123.469C399.597 122.702 400.709 122.753 401.027 123.552L403.551 129.887C403.919 130.81 405.262 130.69 405.46 129.717L407.219 121.078C407.414 120.123 408.72 119.982 409.114 120.874L413.379 130.54C413.753 131.387 414.979 131.314 415.25 130.428L417.519 123L421.303 108.546C421.55 107.603 422.864 107.535 423.207 108.448L425.587 114.793C425.638 114.929 425.718 115.053 425.822 115.155L431.193 120.43C431.707 120.935 432.571 120.746 432.828 120.073L434.579 115.486C434.881 114.695 435.967 114.613 436.384 115.35L436.695 115.899C437.133 116.675 438.29 116.533 438.529 115.675L439.974 110.47C440.245 109.493 441.63 109.493 441.901 110.47L443.89 117.631C443.956 117.869 444.107 118.073 444.315 118.206L453.7 124.197C453.995 124.385 454.366 124.406 454.679 124.252L456.032 123.588C456.631 123.294 457.343 123.657 457.458 124.313L459.1 133.722C459.299 134.858 460.945 134.811 461.079 133.666L461.792 127.54C461.916 126.474 463.403 126.325 463.736 127.345L465.502 132.767C465.796 133.668 467.062 133.693 467.391 132.804L467.935 131.334C468.176 130.684 468.987 130.47 469.517 130.916L470.773 131.973C471.337 132.448 472.204 132.17 472.386 131.455L475.569 118.951C475.827 117.937 477.271 117.95 477.511 118.967L484.419 148.224C484.571 148.866 485.292 149.188 485.871 148.872L489.045 147.14C489.213 147.049 489.351 146.911 489.443 146.743L492.866 140.5L498.198 132.645C498.562 132.108 499.359 132.128 499.696 132.681V132.681C500.054 133.267 500.913 133.245 501.24 132.641L503.195 129.042C503.648 128.208 504.901 128.416 505.059 129.352L506.511 137.905C506.573 138.271 506.833 138.572 507.186 138.688L512.569 140.45C512.67 140.483 512.775 140.5 512.881 140.5H516.478C516.957 140.5 517.369 140.161 517.46 139.69L518.859 132.475C519.032 131.586 520.203 131.366 520.686 132.131L527.16 142.374C527.643 143.139 528.813 142.92 528.986 142.032L530.606 133.761C530.774 132.902 531.886 132.658 532.398 133.367L542.105 146.801C542.2 146.932 542.261 147.083 542.284 147.243L543.451 155.261C543.612 156.372 545.201 156.414 545.421 155.313L548.876 138.008C549.054 137.115 550.235 136.906 550.71 137.682L550.783 137.802C551.292 138.636 552.572 138.32 552.634 137.345L554.864 102.747C554.914 101.975 555.784 101.549 556.424 101.984L561.19 105.225C561.446 105.398 561.606 105.68 561.626 105.988L564.13 145.341C564.137 145.446 564.16 145.55 564.199 145.648L567.669 154.355C568.018 155.233 569.278 155.181 569.554 154.277L571.411 148.199C571.598 147.585 572.307 147.304 572.864 147.623L576.799 149.877C577.356 150.196 578.065 149.915 578.252 149.301L579.038 146.728C579.229 146.105 579.955 145.827 580.512 146.164L584.829 148.773C585.417 149.129 586.181 148.798 586.324 148.125L595.183 106.456C595.371 105.572 596.543 105.371 597.014 106.143L598.467 108.521C598.649 108.819 598.972 109 599.32 109H601.988C602.475 109 602.892 109.352 602.974 109.833L604.218 117.167C604.3 117.648 604.716 118 605.204 118H607.857C608.213 118 608.543 118.189 608.722 118.497L609.332 119.546C609.769 120.297 610.888 120.172 611.15 119.345L614.304 109.362C614.576 108.504 615.753 108.412 616.153 109.218L624.915 126.838C625.27 127.551 626.275 127.584 626.675 126.896L630.793 119.818C631.217 119.09 632.296 119.18 632.593 119.968L636.878 131.331C636.921 131.443 636.982 131.546 637.061 131.636L641.735 136.992C642.277 137.613 643.296 137.348 643.467 136.542L645.001 129.31C645.197 128.383 646.453 128.224 646.875 129.073L654.598 144.623C655.009 145.449 656.223 145.326 656.46 144.435L657.911 138.974C658.171 137.995 659.555 137.978 659.838 138.951L660.2 140.197C660.448 141.05 661.603 141.18 662.034 140.403L663.287 138.148C663.608 137.571 664.39 137.457 664.862 137.92L666.424 139.455C666.932 139.953 667.783 139.777 668.051 139.119L670.543 133L673.837 126.124C674.176 125.417 675.161 125.358 675.583 126.02L676.194 126.98C676.615 127.642 677.6 127.583 677.94 126.876L680.116 122.333C680.511 121.508 681.714 121.602 681.976 122.478L685.129 133.006C685.431 134.013 686.883 133.933 687.071 132.898L688.004 127.765C688.199 126.696 689.718 126.66 689.962 127.718L690.333 129.32C690.577 130.376 692.093 130.343 692.291 129.276L693.301 123.818C693.389 123.344 693.802 123 694.284 123H697.169C697.666 123 698.087 122.635 698.159 122.144L699.618 112.114C699.758 111.149 701.056 110.935 701.499 111.804L702.505 113.781C702.914 114.585 704.093 114.479 704.354 113.617L707.34 103.719C707.527 103.099 708.246 102.817 708.805 103.147L709.337 103.46C709.833 103.753 710.474 103.566 710.735 103.052L712.334 99.9124C712.719 99.1552 713.814 99.1933 714.146 99.9755L714.731 101.355C715.101 102.227 716.364 102.143 716.615 101.229L720.197 88.2153C720.447 87.3076 721.698 87.2165 722.077 88.0784L730.914 108.198C731.303 109.084 732.597 108.956 732.806 108.012L734.189 101.764C734.378 100.908 735.5 100.693 735.992 101.419L736.296 101.866C736.809 102.622 737.983 102.351 738.113 101.448L747.605 35.7456C747.766 34.6338 749.355 34.5907 749.576 35.6922L753.979 57.677C754.166 58.6069 755.421 58.7794 755.851 57.9343L758.732 52.2759C759.105 51.5427 760.155 51.5488 760.519 52.2863L768.147 67.7104C768.24 67.8987 768.391 68.0529 768.576 68.1511L774.469 71.2676C774.746 71.414 774.939 71.6816 774.989 71.9908L776.4 80.6495C776.56 81.6338 777.904 81.8027 778.303 80.8887L780 77" stroke="#191919" stroke-width="2" stroke-linecap="round"/>
</g>
</svg>
