<svg width="21" height="16" viewBox="0 0 21 16" fill="none" xmlns="http://www.w3.org/2000/svg">
<path d="M0.389796 1.93606C0.148965 1.59906 0.226931 1.13063 0.563937 0.889795C0.900944 0.648965 1.36937 0.726931 1.6102 1.06394L0.389796 1.93606ZM5.75332 8.15156L6.36353 7.7155V7.7155L5.75332 8.15156ZM7.33953 8.20503L6.76008 7.72887H6.76008L7.33953 8.20503ZM10.2534 4.65906L9.67398 4.1829L10.2534 4.65906ZM11.8331 4.70351L11.2278 5.14634L11.8331 4.70351ZM19.7411 14.6149C19.6777 15.0242 19.2944 15.3046 18.8851 15.2411L12.2148 14.2071C11.8055 14.1437 11.5251 13.7604 11.5885 13.3511C11.652 12.9418 12.0352 12.6614 12.4446 12.7248L18.3737 13.644L19.2929 7.71478C19.3563 7.30545 19.7396 7.02507 20.1489 7.08852C20.5582 7.15197 20.8386 7.53523 20.7752 7.94456L19.7411 14.6149ZM1.6102 1.06394L6.36353 7.7155L5.14312 8.58762L0.389796 1.93606L1.6102 1.06394ZM6.76008 7.72887L9.67398 4.1829L10.8329 5.13523L7.91899 8.6812L6.76008 7.72887ZM12.4384 4.26068L19.6053 14.0572L18.3947 14.9428L11.2278 5.14634L12.4384 4.26068ZM9.67398 4.1829C10.3997 3.29974 11.7635 3.33811 12.4384 4.26068L11.2278 5.14634C11.1314 5.01454 10.9366 5.00906 10.8329 5.13523L9.67398 4.1829ZM6.36353 7.7155C6.45914 7.8493 6.65567 7.85592 6.76008 7.72887L7.91899 8.6812C7.18813 9.57059 5.81242 9.52421 5.14312 8.58762L6.36353 7.7155Z" fill="#262626"/>
</svg>
