<svg width="21" height="16" viewBox="0 0 21 16" fill="none" xmlns="http://www.w3.org/2000/svg">
<path d="M0.389796 14.0639C0.148965 14.4009 0.226931 14.8694 0.563937 15.1102C0.900944 15.351 1.36937 15.2731 1.6102 14.9361L0.389796 14.0639ZM5.75332 7.84844L6.36353 8.2845V8.2845L5.75332 7.84844ZM7.33953 7.79497L6.76008 8.27113H6.76008L7.33953 7.79497ZM10.2534 11.3409L9.67398 11.8171L10.2534 11.3409ZM11.8331 11.2965L11.2278 10.8537L11.8331 11.2965ZM19.7411 1.38511C19.6777 0.975785 19.2944 0.6954 18.8851 0.758852L12.2148 1.79287C11.8055 1.85632 11.5251 2.23958 11.5885 2.6489C11.652 3.05823 12.0352 3.33861 12.4446 3.27516L18.3737 2.35604L19.2929 8.28522C19.3563 8.69455 19.7396 8.97493 20.1489 8.91148C20.5582 8.84803 20.8386 8.46477 20.7752 8.05544L19.7411 1.38511ZM1.6102 14.9361L6.36353 8.2845L5.14312 7.41238L0.389796 14.0639L1.6102 14.9361ZM6.76008 8.27113L9.67398 11.8171L10.8329 10.8648L7.91899 7.3188L6.76008 8.27113ZM12.4384 11.7393L19.6053 1.94283L18.3947 1.05717L11.2278 10.8537L12.4384 11.7393ZM9.67398 11.8171C10.3997 12.7003 11.7635 12.6619 12.4384 11.7393L11.2278 10.8537C11.1314 10.9855 10.9366 10.9909 10.8329 10.8648L9.67398 11.8171ZM6.36353 8.2845C6.45914 8.1507 6.65567 8.14408 6.76008 8.27113L7.91899 7.3188C7.18813 6.42941 5.81242 6.47579 5.14312 7.41238L6.36353 8.2845Z" fill="#262626"/>
</svg>
